<svg xmlns="http://www.w3.org/2000/svg" width="64" height="64" viewBox="0 0 64 64" fill="none">
  <rect width="64" height="64" rx="16" fill="#E76E8C"/>
  <path d="M32 16C37.3043 16 42.3914 18.1071 46.1421 21.8579C49.8929 25.6086 52 30.6957 52 36C52 41.3043 49.8929 46.3914 46.1421 50.1421C42.3914 53.8929 37.3043 56 32 56C26.6957 56 21.6086 53.8929 17.8579 50.1421C14.1071 46.3914 12 41.3043 12 36C12 30.6957 14.1071 25.6086 17.8579 21.8579C21.6086 18.1071 26.6957 16 32 16ZM32 24C29.3478 24 26.8043 25.0536 24.9289 26.9289C23.0536 28.8043 22 31.3478 22 34C22 36.6522 23.0536 39.1957 24.9289 41.0711C26.8043 42.9464 29.3478 44 32 44C34.6522 44 37.1957 42.9464 39.0711 41.0711C40.9464 39.1957 42 36.6522 42 34C42 31.3478 40.9464 28.8043 39.0711 26.9289C37.1957 25.0536 34.6522 24 32 24Z" fill="white"/>
</svg>
